<svg xmlns="http://www.w3.org/2000/svg" xmlns:xlink="http://www.w3.org/1999/xlink" contentStyleType="text/css" data-diagram-type="CLASS" height="613px" preserveAspectRatio="none" style="width:263px;height:613px;background:#FFFFFF;" version="1.1" viewBox="0 0 263 613" width="263px" zoomAndPan="magnify"><?plantuml 1.2026.6?><defs/><g><!--cluster db--><g class="cluster" data-qualified-name="db" data-source-line="2" id="ent0001"><path d="M8.5,6 L29.543,6 A3.75,3.75 0 0 1 32.043,8.5 L39.043,28.2969 L245.5,28.2969 A2.5,2.5 0 0 1 248,30.7969 L248,595.55 A2.5,2.5 0 0 1 245.5,598.05 L8.5,598.05 A2.5,2.5 0 0 1 6,595.55 L6,8.5 A2.5,2.5 0 0 1 8.5,6" fill="none" style="stroke:#000000;stroke-width:1.5;"/><line style="stroke:#000000;stroke-width:1.5;" x1="6" x2="39.043" y1="28.2969" y2="28.2969"/><text fill="#000000" font-family="sans-serif" font-size="14" font-weight="700" lengthAdjust="spacing" textLength="20.043" x="10" y="20.9951">db</text></g><!--class Client--><g class="entity" data-qualified-name="db.Client" data-source-line="3" id="ent0002"><rect fill="#F1F1F1" height="129.4844" rx="2.5" ry="2.5" style="stroke:#181818;stroke-width:0.5;" width="195.9893" x="29.01" y="165.3"/><ellipse cx="102.4895" cy="181.3" fill="#B4A7E5" rx="11" ry="11" style="stroke:#181818;stroke-width:1;"/><path d="M98.4114,177.0656 L98.4114,174.9094 L105.802,174.9094 L105.802,177.0656 L103.3332,177.0656 L103.3332,185.1437 L105.802,185.1437 L105.802,187.3 L98.4114,187.3 L98.4114,185.1437 L100.8801,185.1437 L100.8801,177.0656 L98.4114,177.0656 Z " fill="#000000"/><text fill="#000000" font-family="sans-serif" font-size="14" font-style="italic" lengthAdjust="spacing" textLength="40.5303" x="122.9895" y="186.1467">Client</text><line style="stroke:#181818;stroke-width:0.5;" x1="30.01" x2="223.9993" y1="197.3" y2="197.3"/><line style="stroke:#181818;stroke-width:0.5;" x1="30.01" x2="223.9993" y1="205.3" y2="205.3"/><g data-visibility-modifier="PUBLIC_METHOD"><ellipse cx="40.01" cy="218.9484" fill="#84BE84" rx="3" ry="3" style="stroke:#038048;stroke-width:1;"/></g><text fill="#000000" font-family="sans-serif" font-size="14" lengthAdjust="spacing" textLength="103.3799" x="49.01" y="222.2951">OfferIP() string</text><g data-visibility-modifier="PUBLIC_METHOD"><ellipse cx="40.01" cy="235.2453" fill="#84BE84" rx="3" ry="3" style="stroke:#038048;stroke-width:1;"/></g><text fill="#000000" font-family="sans-serif" font-size="14" lengthAdjust="spacing" textLength="143.3018" x="49.01" y="238.592">MACAddress() string</text><g data-visibility-modifier="PUBLIC_METHOD"><ellipse cx="40.01" cy="251.5422" fill="#84BE84" rx="3" ry="3" style="stroke:#038048;stroke-width:1;"/></g><text fill="#000000" font-family="sans-serif" font-size="14" lengthAdjust="spacing" textLength="132.125" x="49.01" y="254.8889">BootFileUrl() string</text><g data-visibility-modifier="PUBLIC_METHOD"><ellipse cx="40.01" cy="267.8391" fill="#84BE84" rx="3" ry="3" style="stroke:#038048;stroke-width:1;"/></g><text fill="#000000" font-family="sans-serif" font-size="14" lengthAdjust="spacing" textLength="109.8057" x="49.01" y="271.1857">OSType() string</text><g data-visibility-modifier="PUBLIC_METHOD"><ellipse cx="40.01" cy="284.1359" fill="#84BE84" rx="3" ry="3" style="stroke:#038048;stroke-width:1;"/></g><text fill="#000000" font-family="sans-serif" font-size="14" lengthAdjust="spacing" textLength="57.5859" x="49.01" y="287.4826">ToMap()</text><text fill="#0000FF" font-family="sans-serif" font-size="14" lengthAdjust="spacing" textLength="31.1035" x="111.0461" y="287.4826">map</text><text fill="#000000" font-family="sans-serif" font-size="14" lengthAdjust="spacing" textLength="76.8496" x="142.1496" y="287.4826">[string]any</text></g><!--class dhcpClients--><g class="entity" data-qualified-name="db.dhcpClients" data-source-line="11" id="ent0003"><rect fill="#F1F1F1" height="227.2656" rx="2.5" ry="2.5" style="stroke:#181818;stroke-width:0.5;" width="210.5977" x="21.7" y="354.78"/><ellipse cx="81.6648" cy="370.78" fill="#7FFFD4" rx="11" ry="11" style="stroke:#181818;stroke-width:1;"/><path d="M81.1492,371.3425 Q79.2898,370.6394 78.6336,369.8738 Q77.993,369.0925 77.993,367.78 Q77.993,366.0925 79.0711,365.1238 Q80.1492,364.155 82.0242,364.155 Q82.8836,364.155 83.7273,364.3581 Q84.5867,364.5456 85.4305,364.9363 L85.4305,367.3269 Q84.6492,366.7644 83.8211,366.4831 Q83.0086,366.1863 82.2117,366.1863 Q81.3367,366.1863 80.8523,366.5456 Q80.3836,366.905 80.3836,367.5613 Q80.3836,368.0769 80.7273,368.4206 Q81.0711,368.7488 82.1648,369.155 L83.2273,369.5613 Q84.7117,370.1081 85.4148,371.0144 Q86.1336,371.9206 86.1336,373.2956 Q86.1336,375.1706 85.0242,376.0925 Q83.9148,377.0144 81.6648,377.0144 Q80.743,377.0144 79.8211,376.7956 Q78.8992,376.5769 78.0398,376.155 L78.0398,373.6238 Q79.0086,374.3113 79.9305,374.655 Q80.8523,374.9988 81.743,374.9988 Q82.6492,374.9988 83.1492,374.5925 Q83.6492,374.1706 83.6492,373.4363 Q83.6492,372.8738 83.3055,372.4675 Q82.9773,372.0456 82.3523,371.7956 L81.1492,371.3425 Z " fill="#000000"/><text fill="#000000" font-family="sans-serif" font-size="14" lengthAdjust="spacing" textLength="82.168" x="102.1648" y="375.6267">dhcpClients</text><line style="stroke:#181818;stroke-width:0.5;" x1="22.7" x2="231.2977" y1="386.78" y2="386.78"/><g data-visibility-modifier="PRIVATE_FIELD"><rect fill="none" height="6" style="stroke:#C82930;stroke-width:1;" width="6" x="29.7" y="397.4284"/></g><text fill="#000000" font-family="sans-serif" font-size="14" lengthAdjust="spacing" textLength="90.084" x="41.7" y="403.7751">userID string</text><g data-visibility-modifier="PRIVATE_FIELD"><rect fill="none" height="6" style="stroke:#C82930;stroke-width:1;" width="6" x="29.7" y="413.7253"/></g><text fill="#000000" font-family="sans-serif" font-size="14" lengthAdjust="spacing" textLength="90.002" x="41.7" y="420.072">offerIP string</text><g data-visibility-modifier="PRIVATE_FIELD"><rect fill="none" height="6" style="stroke:#C82930;stroke-width:1;" width="6" x="29.7" y="430.0222"/></g><text fill="#000000" font-family="sans-serif" font-size="14" lengthAdjust="spacing" textLength="130.8604" x="41.7" y="436.3689">macAddress string</text><g data-visibility-modifier="PRIVATE_FIELD"><rect fill="none" height="6" style="stroke:#C82930;stroke-width:1;" width="6" x="29.7" y="446.3191"/></g><text fill="#000000" font-family="sans-serif" font-size="14" lengthAdjust="spacing" textLength="120.4834" x="41.7" y="452.6657">bootFileUrl string</text><g data-visibility-modifier="PRIVATE_FIELD"><rect fill="none" height="6" style="stroke:#C82930;stroke-width:1;" width="6" x="29.7" y="462.6159"/></g><text fill="#000000" font-family="sans-serif" font-size="14" lengthAdjust="spacing" textLength="94.835" x="41.7" y="468.9626">osType string</text><line style="stroke:#181818;stroke-width:0.5;" x1="22.7" x2="231.2977" y1="476.2644" y2="476.2644"/><g data-visibility-modifier="PUBLIC_METHOD"><ellipse cx="32.7" cy="489.9128" fill="#84BE84" rx="3" ry="3" style="stroke:#038048;stroke-width:1;"/></g><text fill="#000000" font-family="sans-serif" font-size="14" lengthAdjust="spacing" textLength="103.3799" x="41.7" y="493.2595">OfferIP() string</text><g data-visibility-modifier="PUBLIC_METHOD"><ellipse cx="32.7" cy="506.2097" fill="#84BE84" rx="3" ry="3" style="stroke:#038048;stroke-width:1;"/></g><text fill="#000000" font-family="sans-serif" font-size="14" lengthAdjust="spacing" textLength="143.3018" x="41.7" y="509.5564">MACAddress() string</text><g data-visibility-modifier="PUBLIC_METHOD"><ellipse cx="32.7" cy="522.5066" fill="#84BE84" rx="3" ry="3" style="stroke:#038048;stroke-width:1;"/></g><text fill="#000000" font-family="sans-serif" font-size="14" lengthAdjust="spacing" textLength="132.125" x="41.7" y="525.8532">BootFileUrl() string</text><g data-visibility-modifier="PUBLIC_METHOD"><ellipse cx="32.7" cy="538.8034" fill="#84BE84" rx="3" ry="3" style="stroke:#038048;stroke-width:1;"/></g><text fill="#000000" font-family="sans-serif" font-size="14" lengthAdjust="spacing" textLength="109.8057" x="41.7" y="542.1501">OSType() string</text><g data-visibility-modifier="PUBLIC_METHOD"><ellipse cx="32.7" cy="555.1003" fill="#84BE84" rx="3" ry="3" style="stroke:#038048;stroke-width:1;"/></g><text fill="#000000" font-family="sans-serif" font-size="14" lengthAdjust="spacing" textLength="184.5977" x="41.7" y="558.447">DHCPClient() *dhcpClients</text><g data-visibility-modifier="PUBLIC_METHOD"><ellipse cx="32.7" cy="571.3972" fill="#84BE84" rx="3" ry="3" style="stroke:#038048;stroke-width:1;"/></g><text fill="#000000" font-family="sans-serif" font-size="14" lengthAdjust="spacing" textLength="57.5859" x="41.7" y="574.7439">ToMap()</text><text fill="#0000FF" font-family="sans-serif" font-size="14" lengthAdjust="spacing" textLength="31.1035" x="103.7361" y="574.7439">map</text><text fill="#000000" font-family="sans-serif" font-size="14" lengthAdjust="spacing" textLength="76.8496" x="134.8396" y="574.7439">[string]any</text></g><!--class ptrClients--><g class="entity" data-qualified-name="db.ptrClients" data-source-line="26" id="ent0004"><rect fill="#F1F1F1" height="64.2969" rx="2.5" ry="2.5" style="stroke:#181818;stroke-width:0.5;" width="201.0205" x="26.49" y="41"/><ellipse cx="88.7722" cy="57" fill="#7FFFD4" rx="11" ry="11" style="stroke:#181818;stroke-width:1;"/><path d="M88.2566,57.5625 Q86.3972,56.8594 85.741,56.0938 Q85.1004,55.3125 85.1004,54 Q85.1004,52.3125 86.1785,51.3438 Q87.2566,50.375 89.1316,50.375 Q89.991,50.375 90.8347,50.5781 Q91.6941,50.7656 92.5379,51.1563 L92.5379,53.5469 Q91.7566,52.9844 90.9285,52.7031 Q90.116,52.4063 89.3191,52.4063 Q88.4441,52.4063 87.9597,52.7656 Q87.491,53.125 87.491,53.7813 Q87.491,54.2969 87.8347,54.6406 Q88.1785,54.9688 89.2722,55.375 L90.3347,55.7813 Q91.8191,56.3281 92.5222,57.2344 Q93.241,58.1406 93.241,59.5156 Q93.241,61.3906 92.1316,62.3125 Q91.0222,63.2344 88.7722,63.2344 Q87.8504,63.2344 86.9285,63.0156 Q86.0066,62.7969 85.1472,62.375 L85.1472,59.8438 Q86.116,60.5313 87.0379,60.875 Q87.9597,61.2188 88.8504,61.2188 Q89.7566,61.2188 90.2566,60.8125 Q90.7566,60.3906 90.7566,59.6563 Q90.7566,59.0938 90.4129,58.6875 Q90.0847,58.2656 89.4597,58.0156 L88.2566,57.5625 Z " fill="#000000"/><text fill="#000000" font-family="sans-serif" font-size="14" lengthAdjust="spacing" textLength="67.9561" x="109.2722" y="61.8467">ptrClients</text><line style="stroke:#181818;stroke-width:0.5;" x1="27.49" x2="226.5105" y1="73" y2="73"/><g data-visibility-modifier="PUBLIC_FIELD"><ellipse cx="37.49" cy="86.6484" fill="none" rx="3" ry="3" style="stroke:#038048;stroke-width:1;"/></g><text fill="#000000" font-family="sans-serif" font-size="14" lengthAdjust="spacing" textLength="47.8242" x="46.49" y="89.9951">Clients</text><text fill="#0000FF" font-family="sans-serif" font-size="14" lengthAdjust="spacing" textLength="31.1035" x="98.7644" y="89.9951">map</text><text fill="#000000" font-family="sans-serif" font-size="14" lengthAdjust="spacing" textLength="91.6426" x="129.8679" y="89.9951">[string]Client</text><line style="stroke:#181818;stroke-width:0.5;" x1="27.49" x2="226.5105" y1="97.2969" y2="97.2969"/></g><!--reverse link Client to dhcpClients--><g class="link" data-entity-1="ent0002" data-entity-2="ent0003" data-link-type="extension" data-source-line="32" id="lnk5"><path codeLine="32" d="M127,313.01 C127,331.47 127,334.18 127,354.67" fill="none" id="Client-backto-dhcpClients" style="stroke:#181818;stroke-width:1;"/><polygon fill="none" points="127,295.01,121,313.01,133,313.01,127,295.01" style="stroke:#181818;stroke-width:1;stroke-linejoin:miter;stroke-miterlimit:10;"/><text fill="#000000" font-family="sans-serif" font-size="13" lengthAdjust="spacing" textLength="76.9082" x="48.4775" y="343.5954">implements</text></g><!--reverse link ptrClients to Client--><g class="link" data-entity-1="ent0004" data-entity-2="ent0002" data-link-type="aggregation" data-source-line="34" id="lnk6"><path codeLine="34" d="M127,117.5 C127,134.65 127,144.54 127,165.11" fill="none" id="ptrClients-backto-Client" style="stroke:#181818;stroke-width:1;"/><polygon fill="none" points="127,105.5,123,111.5,127,117.5,131,111.5,127,105.5" style="stroke:#181818;stroke-width:1;stroke-linejoin:miter;stroke-miterlimit:10;"/><text fill="#000000" font-family="sans-serif" font-size="13" lengthAdjust="spacing" textLength="29.7832" x="95.2224" y="125.4257">uses</text></g><?plantuml-src nPBDJiCm3CVlUGehfurHU85IQNH2S9WsQUE4EAHf2f6IE2JfOOAzE-cNLh4UTa2Q3pduPyV-smve8I0K609gAAKJF4Wqn30jl6LSG5d0Du5eqWJXgiP5SoM52HHwqjW2DbKbtCjsDWSVd3GV8xHUvikoTCBxAVg869wa4gzEJU7DRd-mOehiSSri16c59W17XUwXKBN8DBFfVUFCthgaTsOEfCqyjYzNp7kWvIUtdHPF8KrXjhjTVjLCivWZvf1b8u49r3xgM_rj8m7iX9y3pNWl-vmL9z4JF_f6yk2_wenNp_cs6r6aDwE1_USUR72Nhc41VUGbrRhGeU2H45eMTyFnfZz90bHgguHkIpTmV15T-AWt6YyWTeXDtkaZGdu1?></g></svg>