<svg xmlns="http://www.w3.org/2000/svg" xmlns:xlink="http://www.w3.org/1999/xlink" contentStyleType="text/css" data-diagram-type="CLASS" height="727px" preserveAspectRatio="none" style="width:365px;height:727px;background:#FFFFFF;" version="1.1" viewBox="0 0 365 727" width="365px" zoomAndPan="magnify"><?plantuml 1.2026.6?><defs/><g><!--cluster db--><g class="cluster" data-qualified-name="db" data-source-line="2" id="ent0001"><path d="M8.5,6 L29.543,6 A3.75,3.75 0 0 1 32.043,8.5 L39.043,28.2969 L347.5,28.2969 A2.5,2.5 0 0 1 350,30.7969 L350,709.63 A2.5,2.5 0 0 1 347.5,712.13 L8.5,712.13 A2.5,2.5 0 0 1 6,709.63 L6,8.5 A2.5,2.5 0 0 1 8.5,6" fill="none" style="stroke:#000000;stroke-width:1.5;"/><line style="stroke:#000000;stroke-width:1.5;" x1="6" x2="39.043" y1="28.2969" y2="28.2969"/><text fill="#000000" font-family="sans-serif" font-size="14" font-weight="700" lengthAdjust="spacing" textLength="20.043" x="10" y="20.9951">db</text></g><!--class Client--><g class="entity" data-qualified-name="db.Client" data-source-line="3" id="ent0002"><rect fill="#F1F1F1" height="178.375" rx="2.5" ry="2.5" style="stroke:#181818;stroke-width:0.5;" width="307.5039" x="24.25" y="165.3"/><ellipse cx="153.4868" cy="181.3" fill="#B4A7E5" rx="11" ry="11" style="stroke:#181818;stroke-width:1;"/><path d="M149.4087,177.0656 L149.4087,174.9094 L156.7993,174.9094 L156.7993,177.0656 L154.3306,177.0656 L154.3306,185.1437 L156.7993,185.1437 L156.7993,187.3 L149.4087,187.3 L149.4087,185.1437 L151.8774,185.1437 L151.8774,177.0656 L149.4087,177.0656 Z " fill="#000000"/><text fill="#000000" font-family="sans-serif" font-size="14" font-style="italic" lengthAdjust="spacing" textLength="40.5303" x="173.9868" y="186.1467">Client</text><line style="stroke:#181818;stroke-width:0.5;" x1="25.25" x2="330.7539" y1="197.3" y2="197.3"/><line style="stroke:#181818;stroke-width:0.5;" x1="25.25" x2="330.7539" y1="205.3" y2="205.3"/><g data-visibility-modifier="PUBLIC_METHOD"><ellipse cx="35.25" cy="218.9484" fill="#84BE84" rx="3" ry="3" style="stroke:#038048;stroke-width:1;"/></g><text fill="#000000" font-family="sans-serif" font-size="14" lengthAdjust="spacing" textLength="103.3799" x="44.25" y="222.2951">OfferIP() string</text><g data-visibility-modifier="PUBLIC_METHOD"><ellipse cx="35.25" cy="235.2453" fill="#84BE84" rx="3" ry="3" style="stroke:#038048;stroke-width:1;"/></g><text fill="#000000" font-family="sans-serif" font-size="14" lengthAdjust="spacing" textLength="143.3018" x="44.25" y="238.592">MACAddress() string</text><g data-visibility-modifier="PUBLIC_METHOD"><ellipse cx="35.25" cy="251.5422" fill="#84BE84" rx="3" ry="3" style="stroke:#038048;stroke-width:1;"/></g><text fill="#000000" font-family="sans-serif" font-size="14" lengthAdjust="spacing" textLength="132.125" x="44.25" y="254.8889">BootFileUrl() string</text><g data-visibility-modifier="PUBLIC_METHOD"><ellipse cx="35.25" cy="267.8391" fill="#84BE84" rx="3" ry="3" style="stroke:#038048;stroke-width:1;"/></g><text fill="#000000" font-family="sans-serif" font-size="14" lengthAdjust="spacing" textLength="109.8057" x="44.25" y="271.1857">OSType() string</text><g data-visibility-modifier="PUBLIC_METHOD"><ellipse cx="35.25" cy="284.1359" fill="#84BE84" rx="3" ry="3" style="stroke:#038048;stroke-width:1;"/></g><text fill="#000000" font-family="sans-serif" font-size="14" lengthAdjust="spacing" textLength="57.5859" x="44.25" y="287.4826">ToMap()</text><text fill="#0000FF" font-family="sans-serif" font-size="14" lengthAdjust="spacing" textLength="31.1035" x="106.2861" y="287.4826">map</text><text fill="#000000" font-family="sans-serif" font-size="14" lengthAdjust="spacing" textLength="76.8496" x="137.3896" y="287.4826">[string]any</text><g data-visibility-modifier="PUBLIC_METHOD"><ellipse cx="35.25" cy="300.4328" fill="#84BE84" rx="3" ry="3" style="stroke:#038048;stroke-width:1;"/></g><text fill="#000000" font-family="sans-serif" font-size="14" lengthAdjust="spacing" textLength="146.7744" x="44.25" y="303.7795">GetTemplate() string</text><g data-visibility-modifier="PUBLIC_METHOD"><ellipse cx="35.25" cy="316.7297" fill="#84BE84" rx="3" ry="3" style="stroke:#038048;stroke-width:1;"/></g><text fill="#000000" font-family="sans-serif" font-size="14" lengthAdjust="spacing" textLength="130.2041" x="44.25" y="320.0764">GetCluster() string</text><g data-visibility-modifier="PUBLIC_METHOD"><ellipse cx="35.25" cy="333.0266" fill="#84BE84" rx="3" ry="3" style="stroke:#038048;stroke-width:1;"/></g><text fill="#000000" font-family="sans-serif" font-size="14" lengthAdjust="spacing" textLength="281.5039" x="44.25" y="336.3732">GetMachines() inventory.MachineObject</text></g><!--class dhcpClients--><g class="entity" data-qualified-name="db.dhcpClients" data-source-line="14" id="ent0003"><rect fill="#F1F1F1" height="292.4531" rx="2.5" ry="2.5" style="stroke:#181818;stroke-width:0.5;" width="311.4893" x="22.26" y="403.68"/><ellipse cx="132.6706" cy="419.68" fill="#7FFFD4" rx="11" ry="11" style="stroke:#181818;stroke-width:1;"/><path d="M132.155,420.2425 Q130.2956,419.5394 129.6394,418.7738 Q128.9988,417.9925 128.9988,416.68 Q128.9988,414.9925 130.0769,414.0238 Q131.155,413.055 133.03,413.055 Q133.8894,413.055 134.7331,413.2581 Q135.5925,413.4456 136.4363,413.8363 L136.4363,416.2269 Q135.655,415.6644 134.8269,415.3831 Q134.0144,415.0863 133.2175,415.0863 Q132.3425,415.0863 131.8581,415.4456 Q131.3894,415.805 131.3894,416.4613 Q131.3894,416.9769 131.7331,417.3206 Q132.0769,417.6488 133.1706,418.055 L134.2331,418.4613 Q135.7175,419.0081 136.4206,419.9144 Q137.1394,420.8206 137.1394,422.1956 Q137.1394,424.0706 136.03,424.9925 Q134.9206,425.9144 132.6706,425.9144 Q131.7488,425.9144 130.8269,425.6956 Q129.905,425.4769 129.0456,425.055 L129.0456,422.5238 Q130.0144,423.2113 130.9363,423.555 Q131.8581,423.8988 132.7488,423.8988 Q133.655,423.8988 134.155,423.4925 Q134.655,423.0706 134.655,422.3363 Q134.655,421.7738 134.3113,421.3675 Q133.9831,420.9456 133.3581,420.6956 L132.155,420.2425 Z " fill="#000000"/><text fill="#000000" font-family="sans-serif" font-size="14" lengthAdjust="spacing" textLength="82.168" x="153.1706" y="424.5267">dhcpClients</text><line style="stroke:#181818;stroke-width:0.5;" x1="23.26" x2="332.7493" y1="435.68" y2="435.68"/><g data-visibility-modifier="PRIVATE_FIELD"><rect fill="none" height="6" style="stroke:#C82930;stroke-width:1;" width="6" x="30.26" y="446.3284"/></g><text fill="#000000" font-family="sans-serif" font-size="14" lengthAdjust="spacing" textLength="90.084" x="42.26" y="452.6751">userID string</text><g data-visibility-modifier="PRIVATE_FIELD"><rect fill="none" height="6" style="stroke:#C82930;stroke-width:1;" width="6" x="30.26" y="462.6253"/></g><text fill="#000000" font-family="sans-serif" font-size="14" lengthAdjust="spacing" textLength="90.002" x="42.26" y="468.972">offerIP string</text><g data-visibility-modifier="PRIVATE_FIELD"><rect fill="none" height="6" style="stroke:#C82930;stroke-width:1;" width="6" x="30.26" y="478.9222"/></g><text fill="#000000" font-family="sans-serif" font-size="14" lengthAdjust="spacing" textLength="130.8604" x="42.26" y="485.2689">macAddress string</text><g data-visibility-modifier="PRIVATE_FIELD"><rect fill="none" height="6" style="stroke:#C82930;stroke-width:1;" width="6" x="30.26" y="495.2191"/></g><text fill="#000000" font-family="sans-serif" font-size="14" lengthAdjust="spacing" textLength="120.4834" x="42.26" y="501.5657">bootFileUrl string</text><g data-visibility-modifier="PRIVATE_FIELD"><rect fill="none" height="6" style="stroke:#C82930;stroke-width:1;" width="6" x="30.26" y="511.5159"/></g><text fill="#000000" font-family="sans-serif" font-size="14" lengthAdjust="spacing" textLength="94.835" x="42.26" y="517.8626">osType string</text><g data-visibility-modifier="PRIVATE_FIELD"><rect fill="none" height="6" style="stroke:#C82930;stroke-width:1;" width="6" x="30.26" y="527.8128"/></g><text fill="#000000" font-family="sans-serif" font-size="14" lengthAdjust="spacing" textLength="285.4893" x="42.26" y="534.1595">machineObject inventory.MachineObject</text><line style="stroke:#181818;stroke-width:0.5;" x1="23.26" x2="332.7493" y1="541.4613" y2="541.4613"/><g data-visibility-modifier="PUBLIC_METHOD"><ellipse cx="33.26" cy="555.1097" fill="#84BE84" rx="3" ry="3" style="stroke:#038048;stroke-width:1;"/></g><text fill="#000000" font-family="sans-serif" font-size="14" lengthAdjust="spacing" textLength="103.3799" x="42.26" y="558.4564">OfferIP() string</text><g data-visibility-modifier="PUBLIC_METHOD"><ellipse cx="33.26" cy="571.4066" fill="#84BE84" rx="3" ry="3" style="stroke:#038048;stroke-width:1;"/></g><text fill="#000000" font-family="sans-serif" font-size="14" lengthAdjust="spacing" textLength="143.3018" x="42.26" y="574.7532">MACAddress() string</text><g data-visibility-modifier="PUBLIC_METHOD"><ellipse cx="33.26" cy="587.7034" fill="#84BE84" rx="3" ry="3" style="stroke:#038048;stroke-width:1;"/></g><text fill="#000000" font-family="sans-serif" font-size="14" lengthAdjust="spacing" textLength="132.125" x="42.26" y="591.0501">BootFileUrl() string</text><g data-visibility-modifier="PUBLIC_METHOD"><ellipse cx="33.26" cy="604.0003" fill="#84BE84" rx="3" ry="3" style="stroke:#038048;stroke-width:1;"/></g><text fill="#000000" font-family="sans-serif" font-size="14" lengthAdjust="spacing" textLength="109.8057" x="42.26" y="607.347">OSType() string</text><g data-visibility-modifier="PUBLIC_METHOD"><ellipse cx="33.26" cy="620.2972" fill="#84BE84" rx="3" ry="3" style="stroke:#038048;stroke-width:1;"/></g><text fill="#000000" font-family="sans-serif" font-size="14" lengthAdjust="spacing" textLength="146.7744" x="42.26" y="623.6439">GetTemplate() string</text><g data-visibility-modifier="PUBLIC_METHOD"><ellipse cx="33.26" cy="636.5941" fill="#84BE84" rx="3" ry="3" style="stroke:#038048;stroke-width:1;"/></g><text fill="#000000" font-family="sans-serif" font-size="14" lengthAdjust="spacing" textLength="130.2041" x="42.26" y="639.9407">GetCluster() string</text><g data-visibility-modifier="PUBLIC_METHOD"><ellipse cx="33.26" cy="652.8909" fill="#84BE84" rx="3" ry="3" style="stroke:#038048;stroke-width:1;"/></g><text fill="#000000" font-family="sans-serif" font-size="14" lengthAdjust="spacing" textLength="281.5039" x="42.26" y="656.2376">GetMachines() inventory.MachineObject</text><g data-visibility-modifier="PUBLIC_METHOD"><ellipse cx="33.26" cy="669.1878" fill="#84BE84" rx="3" ry="3" style="stroke:#038048;stroke-width:1;"/></g><text fill="#000000" font-family="sans-serif" font-size="14" lengthAdjust="spacing" textLength="184.5977" x="42.26" y="672.5345">DHCPClient() *dhcpClients</text><g data-visibility-modifier="PUBLIC_METHOD"><ellipse cx="33.26" cy="685.4847" fill="#84BE84" rx="3" ry="3" style="stroke:#038048;stroke-width:1;"/></g><text fill="#000000" font-family="sans-serif" font-size="14" lengthAdjust="spacing" textLength="57.5859" x="42.26" y="688.8314">ToMap()</text><text fill="#0000FF" font-family="sans-serif" font-size="14" lengthAdjust="spacing" textLength="31.1035" x="104.2961" y="688.8314">map</text><text fill="#000000" font-family="sans-serif" font-size="14" lengthAdjust="spacing" textLength="76.8496" x="135.3996" y="688.8314">[string]any</text></g><!--class ptrClients--><g class="entity" data-qualified-name="db.ptrClients" data-source-line="33" id="ent0004"><rect fill="#F1F1F1" height="64.2969" rx="2.5" ry="2.5" style="stroke:#181818;stroke-width:0.5;" width="201.0205" x="77.49" y="41"/><ellipse cx="139.7722" cy="57" fill="#7FFFD4" rx="11" ry="11" style="stroke:#181818;stroke-width:1;"/><path d="M139.2566,57.5625 Q137.3972,56.8594 136.741,56.0938 Q136.1004,55.3125 136.1004,54 Q136.1004,52.3125 137.1785,51.3438 Q138.2566,50.375 140.1316,50.375 Q140.991,50.375 141.8347,50.5781 Q142.6941,50.7656 143.5379,51.1563 L143.5379,53.5469 Q142.7566,52.9844 141.9285,52.7031 Q141.116,52.4063 140.3191,52.4063 Q139.4441,52.4063 138.9597,52.7656 Q138.491,53.125 138.491,53.7813 Q138.491,54.2969 138.8347,54.6406 Q139.1785,54.9688 140.2722,55.375 L141.3347,55.7813 Q142.8191,56.3281 143.5222,57.2344 Q144.241,58.1406 144.241,59.5156 Q144.241,61.3906 143.1316,62.3125 Q142.0222,63.2344 139.7722,63.2344 Q138.8504,63.2344 137.9285,63.0156 Q137.0066,62.7969 136.1472,62.375 L136.1472,59.8438 Q137.116,60.5313 138.0379,60.875 Q138.9597,61.2188 139.8504,61.2188 Q140.7566,61.2188 141.2566,60.8125 Q141.7566,60.3906 141.7566,59.6563 Q141.7566,59.0938 141.4129,58.6875 Q141.0847,58.2656 140.4597,58.0156 L139.2566,57.5625 Z " fill="#000000"/><text fill="#000000" font-family="sans-serif" font-size="14" lengthAdjust="spacing" textLength="67.9561" x="160.2722" y="61.8467">ptrClients</text><line style="stroke:#181818;stroke-width:0.5;" x1="78.49" x2="277.5105" y1="73" y2="73"/><g data-visibility-modifier="PUBLIC_FIELD"><ellipse cx="88.49" cy="86.6484" fill="none" rx="3" ry="3" style="stroke:#038048;stroke-width:1;"/></g><text fill="#000000" font-family="sans-serif" font-size="14" lengthAdjust="spacing" textLength="47.8242" x="97.49" y="89.9951">Clients</text><text fill="#0000FF" font-family="sans-serif" font-size="14" lengthAdjust="spacing" textLength="31.1035" x="149.7644" y="89.9951">map</text><text fill="#000000" font-family="sans-serif" font-size="14" lengthAdjust="spacing" textLength="91.6426" x="180.8679" y="89.9951">[string]Client</text><line style="stroke:#181818;stroke-width:0.5;" x1="78.49" x2="277.5105" y1="97.2969" y2="97.2969"/></g><!--reverse link Client to dhcpClients--><g class="link" data-entity-1="ent0002" data-entity-2="ent0003" data-link-type="extension" data-source-line="39" id="lnk5"><path codeLine="39" d="M178,361.92 C178,380.74 178,383.08 178,403.39" fill="none" id="Client-backto-dhcpClients" style="stroke:#181818;stroke-width:1;"/><polygon fill="none" points="178,343.92,172,361.92,184,361.92,178,343.92" style="stroke:#181818;stroke-width:1;stroke-linejoin:miter;stroke-miterlimit:10;"/><text fill="#000000" font-family="sans-serif" font-size="13" lengthAdjust="spacing" textLength="76.9082" x="100.0638" y="392.5188">implements</text></g><!--reverse link ptrClients to Client--><g class="link" data-entity-1="ent0004" data-entity-2="ent0002" data-link-type="aggregation" data-source-line="41" id="lnk6"><path codeLine="41" d="M178,117.39 C178,134.05 178,143.47 178,164.82" fill="none" id="ptrClients-backto-Client" style="stroke:#181818;stroke-width:1;"/><polygon fill="none" points="178,105.39,174,111.39,178,117.39,182,111.39,178,105.39" style="stroke:#181818;stroke-width:1;stroke-linejoin:miter;stroke-miterlimit:10;"/><text fill="#000000" font-family="sans-serif" font-size="13" lengthAdjust="spacing" textLength="29.7832" x="146.2224" y="125.2941">uses</text></g><?plantuml-src nPFBJiCm44Nt-OfHLYsGyWCXKad5Or6rKiiAiN2S2JNo2zj1gg3_ZjsaIaG3gbY05rdupCDpvyOf3Kv1ePnJ0afca3gcP2I9GAi9HIWBU8_07oOTcYfSnJbdA5qCBGdd71PLXUP-EHg3TOR9vnwQJ_DfMHgqTeXUA-Lk6CS7muVmOhNUQXmYQpKdseEqKj81LLoPguBNc0cYqyjmcJqsIKz4Rdk9j-ZMA3GdRh2knpclhH_t6pedTCCaXccOVFDIABETj9UBuiLh6EqJTlilvSHQYCiDrOrmDeOqXT7gOlfQ4q5yVHn3blNKJA2sNipPr-u9g4RbOo08RJK-PaMdy4156_GTBDZDy_ES_sM0FzXZ5p-xovVD_dpuMM-RltVaiKcqCwTwv1pQo5EwDQ67XhieYijYSlYDquyaWPXv8L7iMmVOjsiJtdjRxEtfNwX2NbSeYZu1?></g></svg>