<svg xmlns="http://www.w3.org/2000/svg" xmlns:xlink="http://www.w3.org/1999/xlink" contentStyleType="text/css" data-diagram-type="CLASS" height="743px" preserveAspectRatio="none" style="width:1903px;height:743px;background:#FFFFFF;" version="1.1" viewBox="0 0 1903 743" width="1903px" zoomAndPan="magnify"><?plantuml 1.2026.6?><defs/><g><!--cluster inventory--><g class="cluster" data-qualified-name="inventory" data-source-line="2" id="ent0001"><path d="M8.5,6 L85.1943,6 A3.75,3.75 0 0 1 87.6943,8.5 L94.6943,28.2969 L1763.5,28.2969 A2.5,2.5 0 0 1 1766,30.7969 L1766,725.92 A2.5,2.5 0 0 1 1763.5,728.42 L8.5,728.42 A2.5,2.5 0 0 1 6,725.92 L6,8.5 A2.5,2.5 0 0 1 8.5,6" fill="none" style="stroke:#000000;stroke-width:1.5;"/><line style="stroke:#000000;stroke-width:1.5;" x1="6" x2="94.6943" y1="28.2969" y2="28.2969"/><text fill="#000000" font-family="sans-serif" font-size="14" font-weight="700" lengthAdjust="spacing" textLength="75.6943" x="10" y="20.9951">inventory</text></g><!--cluster time--><g class="cluster" data-qualified-name="time" data-source-line="102" id="ent0021"><path d="M1792.5,423.64 L1829.0742,423.64 A3.75,3.75 0 0 1 1831.5742,426.14 L1838.5742,445.9369 L1885.5,445.9369 A2.5,2.5 0 0 1 1888,448.4369 L1888,520.14 A2.5,2.5 0 0 1 1885.5,522.64 L1792.5,522.64 A2.5,2.5 0 0 1 1790,520.14 L1790,426.14 A2.5,2.5 0 0 1 1792.5,423.64" fill="none" style="stroke:#000000;stroke-width:1.5;"/><line style="stroke:#000000;stroke-width:1.5;" x1="1790" x2="1838.5742" y1="445.9369" y2="445.9369"/><text fill="#000000" font-family="sans-serif" font-size="14" font-weight="700" lengthAdjust="spacing" textLength="35.5742" x="1794" y="438.6351">time</text></g><!--class BaseConfig--><g class="entity" data-qualified-name="inventory.BaseConfig" data-source-line="3" id="ent0002"><rect fill="#F1F1F1" height="259.8594" rx="2.5" ry="2.5" style="stroke:#181818;stroke-width:0.5;" width="172.1797" x="646.91" y="41"/><ellipse cx="689.4365" cy="57" fill="#7FFFD4" rx="11" ry="11" style="stroke:#181818;stroke-width:1;"/><path d="M688.9208,57.5625 Q687.0615,56.8594 686.4052,56.0938 Q685.7646,55.3125 685.7646,54 Q685.7646,52.3125 686.8427,51.3438 Q687.9208,50.375 689.7958,50.375 Q690.6552,50.375 691.499,50.5781 Q692.3583,50.7656 693.2021,51.1563 L693.2021,53.5469 Q692.4208,52.9844 691.5927,52.7031 Q690.7802,52.4063 689.9833,52.4063 Q689.1083,52.4063 688.624,52.7656 Q688.1552,53.125 688.1552,53.7813 Q688.1552,54.2969 688.499,54.6406 Q688.8427,54.9688 689.9365,55.375 L690.999,55.7813 Q692.4833,56.3281 693.1865,57.2344 Q693.9052,58.1406 693.9052,59.5156 Q693.9052,61.3906 692.7958,62.3125 Q691.6865,63.2344 689.4365,63.2344 Q688.5146,63.2344 687.5927,63.0156 Q686.6708,62.7969 685.8115,62.375 L685.8115,59.8438 Q686.7802,60.5313 687.7021,60.875 Q688.624,61.2188 689.5146,61.2188 Q690.4208,61.2188 690.9208,60.8125 Q691.4208,60.3906 691.4208,59.6563 Q691.4208,59.0938 691.0771,58.6875 Q690.749,58.2656 690.124,58.0156 L688.9208,57.5625 Z " fill="#000000"/><text fill="#000000" font-family="sans-serif" font-size="14" lengthAdjust="spacing" textLength="79.0098" x="709.5535" y="61.8467">BaseConfig</text><line style="stroke:#181818;stroke-width:0.5;" x1="647.91" x2="818.0897" y1="73" y2="73"/><g data-visibility-modifier="PUBLIC_FIELD"><ellipse cx="657.91" cy="86.6484" fill="none" rx="3" ry="3" style="stroke:#038048;stroke-width:1;"/></g><text fill="#000000" font-family="sans-serif" font-size="14" lengthAdjust="spacing" textLength="89.7832" x="666.91" y="89.9951">Locale string</text><g data-visibility-modifier="PUBLIC_FIELD"><ellipse cx="657.91" cy="102.9453" fill="none" rx="3" ry="3" style="stroke:#038048;stroke-width:1;"/></g><text fill="#000000" font-family="sans-serif" font-size="14" lengthAdjust="spacing" textLength="101.8213" x="666.91" y="106.292">Keymap string</text><g data-visibility-modifier="PUBLIC_FIELD"><ellipse cx="657.91" cy="119.2422" fill="none" rx="3" ry="3" style="stroke:#038048;stroke-width:1;"/></g><text fill="#000000" font-family="sans-serif" font-size="14" lengthAdjust="spacing" textLength="112.7314" x="666.91" y="122.5889">Timezone string</text><g data-visibility-modifier="PUBLIC_FIELD"><ellipse cx="657.91" cy="135.5391" fill="none" rx="3" ry="3" style="stroke:#038048;stroke-width:1;"/></g><text fill="#000000" font-family="sans-serif" font-size="14" lengthAdjust="spacing" textLength="116.2178" x="666.91" y="138.8857">Hostname string</text><g data-visibility-modifier="PUBLIC_FIELD"><ellipse cx="657.91" cy="151.8359" fill="none" rx="3" ry="3" style="stroke:#038048;stroke-width:1;"/></g><text fill="#000000" font-family="sans-serif" font-size="14" lengthAdjust="spacing" textLength="98.9639" x="666.91" y="155.1826">Domain string</text><g data-visibility-modifier="PUBLIC_FIELD"><ellipse cx="657.91" cy="168.1328" fill="none" rx="3" ry="3" style="stroke:#038048;stroke-width:1;"/></g><text fill="#000000" font-family="sans-serif" font-size="14" lengthAdjust="spacing" textLength="116.252" x="666.91" y="171.4795">Username string</text><g data-visibility-modifier="PUBLIC_FIELD"><ellipse cx="657.91" cy="184.4297" fill="none" rx="3" ry="3" style="stroke:#038048;stroke-width:1;"/></g><text fill="#000000" font-family="sans-serif" font-size="14" lengthAdjust="spacing" textLength="140.957" x="666.91" y="187.7764">UserFullname string</text><g data-visibility-modifier="PUBLIC_FIELD"><ellipse cx="657.91" cy="200.7266" fill="none" rx="3" ry="3" style="stroke:#038048;stroke-width:1;"/></g><text fill="#000000" font-family="sans-serif" font-size="14" lengthAdjust="spacing" textLength="146.1797" x="666.91" y="204.0732">PasswordHash string</text><g data-visibility-modifier="PUBLIC_FIELD"><ellipse cx="657.91" cy="217.0234" fill="none" rx="3" ry="3" style="stroke:#038048;stroke-width:1;"/></g><text fill="#000000" font-family="sans-serif" font-size="14" lengthAdjust="spacing" textLength="118.3164" x="666.91" y="220.3701">MirrorHost string</text><g data-visibility-modifier="PUBLIC_FIELD"><ellipse cx="657.91" cy="233.3203" fill="none" rx="3" ry="3" style="stroke:#038048;stroke-width:1;"/></g><text fill="#000000" font-family="sans-serif" font-size="14" lengthAdjust="spacing" textLength="106.8662" x="666.91" y="236.667">MirrorDir string</text><g data-visibility-modifier="PUBLIC_FIELD"><ellipse cx="657.91" cy="249.6172" fill="none" rx="3" ry="3" style="stroke:#038048;stroke-width:1;"/></g><text fill="#000000" font-family="sans-serif" font-size="14" lengthAdjust="spacing" textLength="135.9189" x="666.91" y="252.9639">CallbackHost string</text><g data-visibility-modifier="PUBLIC_FIELD"><ellipse cx="657.91" cy="265.9141" fill="none" rx="3" ry="3" style="stroke:#038048;stroke-width:1;"/></g><text fill="#000000" font-family="sans-serif" font-size="14" lengthAdjust="spacing" textLength="132.3779" x="666.91" y="269.2607">MACAddress string</text><g data-visibility-modifier="PUBLIC_FIELD"><ellipse cx="657.91" cy="282.2109" fill="none" rx="3" ry="3" style="stroke:#038048;stroke-width:1;"/></g><text fill="#000000" font-family="sans-serif" font-size="14" lengthAdjust="spacing" textLength="125.2207" x="666.91" y="285.5576">SSHPubKey string</text><line style="stroke:#181818;stroke-width:0.5;" x1="647.91" x2="818.0897" y1="292.8594" y2="292.8594"/></g><!--class CentOSConfig--><g class="entity" data-qualified-name="inventory.CentOSConfig" data-source-line="19" id="ent0003"><rect fill="#F1F1F1" height="96.8906" rx="2.5" ry="2.5" style="stroke:#181818;stroke-width:0.5;" width="173.793" x="399.1" y="434.19"/><ellipse cx="433.9976" cy="450.19" fill="#7FFFD4" rx="11" ry="11" style="stroke:#181818;stroke-width:1;"/><path d="M433.4819,450.7525 Q431.6226,450.0494 430.9663,449.2837 Q430.3257,448.5025 430.3257,447.19 Q430.3257,445.5025 431.4038,444.5337 Q432.4819,443.565 434.3569,443.565 Q435.2163,443.565 436.0601,443.7681 Q436.9194,443.9556 437.7632,444.3462 L437.7632,446.7369 Q436.9819,446.1744 436.1538,445.8931 Q435.3413,445.5962 434.5444,445.5962 Q433.6694,445.5962 433.1851,445.9556 Q432.7163,446.315 432.7163,446.9712 Q432.7163,447.4869 433.0601,447.8306 Q433.4038,448.1587 434.4976,448.565 L435.5601,448.9712 Q437.0444,449.5181 437.7476,450.4244 Q438.4663,451.3306 438.4663,452.7056 Q438.4663,454.5806 437.3569,455.5025 Q436.2476,456.4244 433.9976,456.4244 Q433.0757,456.4244 432.1538,456.2056 Q431.2319,455.9869 430.3726,455.565 L430.3726,453.0337 Q431.3413,453.7212 432.2632,454.065 Q433.1851,454.4087 434.0757,454.4087 Q434.9819,454.4087 435.4819,454.0025 Q435.9819,453.5806 435.9819,452.8462 Q435.9819,452.2837 435.6382,451.8775 Q435.3101,451.4556 434.6851,451.2056 L433.4819,450.7525 Z " fill="#000000"/><text fill="#000000" font-family="sans-serif" font-size="14" lengthAdjust="spacing" textLength="97.5762" x="452.4192" y="455.0367">CentOSConfig</text><line style="stroke:#181818;stroke-width:0.5;" x1="400.1" x2="571.893" y1="466.19" y2="466.19"/><g data-visibility-modifier="PUBLIC_FIELD"><ellipse cx="410.1" cy="479.8384" fill="none" rx="3" ry="3" style="stroke:#038048;stroke-width:1;"/></g><text fill="#000000" font-family="sans-serif" font-size="14" lengthAdjust="spacing" textLength="107.3174" x="419.1" y="483.1851">Interface string</text><g data-visibility-modifier="PUBLIC_FIELD"><ellipse cx="410.1" cy="496.1353" fill="none" rx="3" ry="3" style="stroke:#038048;stroke-width:1;"/></g><text fill="#000000" font-family="sans-serif" font-size="14" lengthAdjust="spacing" textLength="122.5889" x="419.1" y="499.482">DiskDevice string</text><g data-visibility-modifier="PUBLIC_FIELD"><ellipse cx="410.1" cy="512.4322" fill="none" rx="3" ry="3" style="stroke:#038048;stroke-width:1;"/></g><text fill="#000000" font-family="sans-serif" font-size="14" lengthAdjust="spacing" textLength="147.793" x="419.1" y="515.7789">ExtraPackages string</text><line style="stroke:#181818;stroke-width:0.5;" x1="400.1" x2="571.893" y1="523.0806" y2="523.0806"/></g><!--class CentOSSpecific--><g class="entity" data-qualified-name="inventory.CentOSSpecific" data-source-line="25" id="ent0004"><rect fill="#F1F1F1" height="129.4844" rx="2.5" ry="2.5" style="stroke:#181818;stroke-width:0.5;" width="203.6318" x="22.18" y="106.19"/><ellipse cx="66.1984" cy="122.19" fill="#7FFFD4" rx="11" ry="11" style="stroke:#181818;stroke-width:1;"/><path d="M65.6828,122.7525 Q63.8234,122.0494 63.1672,121.2837 Q62.5265,120.5025 62.5265,119.19 Q62.5265,117.5025 63.6047,116.5337 Q64.6828,115.565 66.5578,115.565 Q67.4172,115.565 68.2609,115.7681 Q69.1203,115.9556 69.964,116.3462 L69.964,118.7369 Q69.1828,118.1744 68.3547,117.8931 Q67.5422,117.5962 66.7453,117.5962 Q65.8703,117.5962 65.3859,117.9556 Q64.9172,118.315 64.9172,118.9712 Q64.9172,119.4869 65.2609,119.8306 Q65.6047,120.1587 66.6984,120.565 L67.7609,120.9712 Q69.2453,121.5181 69.9484,122.4244 Q70.6672,123.3306 70.6672,124.7056 Q70.6672,126.5806 69.5578,127.5025 Q68.4484,128.4244 66.1984,128.4244 Q65.2765,128.4244 64.3547,128.2056 Q63.4328,127.9869 62.5734,127.565 L62.5734,125.0337 Q63.5422,125.7212 64.464,126.065 Q65.3859,126.4087 66.2765,126.4087 Q67.1828,126.4087 67.6828,126.0025 Q68.1828,125.5806 68.1828,124.8462 Q68.1828,124.2837 67.839,123.8775 Q67.5109,123.4556 66.8859,123.2056 L65.6828,122.7525 Z " fill="#000000"/><text fill="#000000" font-family="sans-serif" font-size="14" lengthAdjust="spacing" textLength="107.1465" x="86.6469" y="127.0367">CentOSSpecific</text><line style="stroke:#181818;stroke-width:0.5;" x1="23.18" x2="224.8118" y1="138.19" y2="138.19"/><g data-visibility-modifier="PUBLIC_FIELD"><ellipse cx="33.18" cy="151.8384" fill="none" rx="3" ry="3" style="stroke:#038048;stroke-width:1;"/></g><text fill="#000000" font-family="sans-serif" font-size="14" lengthAdjust="spacing" textLength="81.6621" x="42.18" y="155.1851">Initrd string</text><g data-visibility-modifier="PUBLIC_FIELD"><ellipse cx="33.18" cy="168.1353" fill="none" rx="3" ry="3" style="stroke:#038048;stroke-width:1;"/></g><text fill="#000000" font-family="sans-serif" font-size="14" lengthAdjust="spacing" textLength="57.21" x="42.18" y="171.482">IP string</text><g data-visibility-modifier="PUBLIC_FIELD"><ellipse cx="33.18" cy="184.4322" fill="none" rx="3" ry="3" style="stroke:#038048;stroke-width:1;"/></g><text fill="#000000" font-family="sans-serif" font-size="14" lengthAdjust="spacing" textLength="177.6318" x="42.18" y="187.7789">InstallKickStartURL string</text><g data-visibility-modifier="PUBLIC_FIELD"><ellipse cx="33.18" cy="200.7291" fill="none" rx="3" ry="3" style="stroke:#038048;stroke-width:1;"/></g><text fill="#000000" font-family="sans-serif" font-size="14" lengthAdjust="spacing" textLength="150.3496" x="42.18" y="204.0757">InstallRepoURL string</text><g data-visibility-modifier="PUBLIC_FIELD"><ellipse cx="33.18" cy="217.0259" fill="none" rx="3" ry="3" style="stroke:#038048;stroke-width:1;"/></g><text fill="#000000" font-family="sans-serif" font-size="14" lengthAdjust="spacing" textLength="94.001" x="42.18" y="220.3726">Stage2 string</text><line style="stroke:#181818;stroke-width:0.5;" x1="23.18" x2="224.8118" y1="227.6744" y2="227.6744"/></g><!--class CoreOSSpecifc--><g class="entity" data-qualified-name="inventory.CoreOSSpecifc" data-source-line="33" id="ent0005"><rect fill="#F1F1F1" height="113.1875" rx="2.5" ry="2.5" style="stroke:#181818;stroke-width:0.5;" width="151.0088" x="260.5" y="114.33"/><ellipse cx="282.6068" cy="130.33" fill="#7FFFD4" rx="11" ry="11" style="stroke:#181818;stroke-width:1;"/><path d="M282.0912,130.8925 Q280.2318,130.1894 279.5756,129.4237 Q278.935,128.6425 278.935,127.33 Q278.935,125.6425 280.0131,124.6737 Q281.0912,123.705 282.9662,123.705 Q283.8256,123.705 284.6693,123.9081 Q285.5287,124.0956 286.3725,124.4862 L286.3725,126.8769 Q285.5912,126.3144 284.7631,126.0331 Q283.9506,125.7362 283.1537,125.7362 Q282.2787,125.7362 281.7943,126.0956 Q281.3256,126.455 281.3256,127.1112 Q281.3256,127.6269 281.6693,127.9706 Q282.0131,128.2987 283.1068,128.705 L284.1693,129.1112 Q285.6537,129.6581 286.3568,130.5644 Q287.0756,131.4706 287.0756,132.8456 Q287.0756,134.7206 285.9662,135.6425 Q284.8568,136.5644 282.6068,136.5644 Q281.685,136.5644 280.7631,136.3456 Q279.8412,136.1269 278.9818,135.705 L278.9818,133.1737 Q279.9506,133.8612 280.8725,134.205 Q281.7943,134.5487 282.685,134.5487 Q283.5912,134.5487 284.0912,134.1425 Q284.5912,133.7206 284.5912,132.9862 Q284.5912,132.4237 284.2475,132.0175 Q283.9193,131.5956 283.2943,131.3456 L282.0912,130.8925 Z " fill="#000000"/><text fill="#000000" font-family="sans-serif" font-size="14" lengthAdjust="spacing" textLength="103.2158" x="298.1861" y="135.1767">CoreOSSpecifc</text><line style="stroke:#181818;stroke-width:0.5;" x1="261.5" x2="410.5088" y1="146.33" y2="146.33"/><g data-visibility-modifier="PUBLIC_FIELD"><ellipse cx="271.5" cy="159.9784" fill="none" rx="3" ry="3" style="stroke:#038048;stroke-width:1;"/></g><text fill="#000000" font-family="sans-serif" font-size="14" lengthAdjust="spacing" textLength="81.6621" x="280.5" y="163.3251">Initrd string</text><g data-visibility-modifier="PUBLIC_FIELD"><ellipse cx="271.5" cy="176.2753" fill="none" rx="3" ry="3" style="stroke:#038048;stroke-width:1;"/></g><text fill="#000000" font-family="sans-serif" font-size="14" lengthAdjust="spacing" textLength="121.7002" x="280.5" y="179.622">RootFSURL string</text><g data-visibility-modifier="PUBLIC_FIELD"><ellipse cx="271.5" cy="192.5722" fill="none" rx="3" ry="3" style="stroke:#038048;stroke-width:1;"/></g><text fill="#000000" font-family="sans-serif" font-size="14" lengthAdjust="spacing" textLength="114.4609" x="280.5" y="195.9189">InstallDev string</text><g data-visibility-modifier="PUBLIC_FIELD"><ellipse cx="271.5" cy="208.8691" fill="none" rx="3" ry="3" style="stroke:#038048;stroke-width:1;"/></g><text fill="#000000" font-family="sans-serif" font-size="14" lengthAdjust="spacing" textLength="125.0088" x="280.5" y="212.2157">IgnitionURL string</text><line style="stroke:#181818;stroke-width:0.5;" x1="261.5" x2="410.5088" y1="219.5175" y2="219.5175"/></g><!--class DebianConfig--><g class="entity" data-qualified-name="inventory.DebianConfig" data-source-line="40" id="ent0006"><rect fill="#F1F1F1" height="129.4844" rx="2.5" ry="2.5" style="stroke:#181818;stroke-width:0.5;" width="173.793" x="608.1" y="417.9"/><ellipse cx="644.3634" cy="433.9" fill="#7FFFD4" rx="11" ry="11" style="stroke:#181818;stroke-width:1;"/><path d="M643.8478,434.4625 Q641.9884,433.7594 641.3321,432.9938 Q640.6915,432.2125 640.6915,430.9 Q640.6915,429.2125 641.7696,428.2438 Q642.8478,427.275 644.7228,427.275 Q645.5821,427.275 646.4259,427.4781 Q647.2853,427.6656 648.129,428.0563 L648.129,430.4469 Q647.3478,429.8844 646.5196,429.6031 Q645.7071,429.3063 644.9103,429.3063 Q644.0353,429.3063 643.5509,429.6656 Q643.0821,430.025 643.0821,430.6813 Q643.0821,431.1969 643.4259,431.5406 Q643.7696,431.8688 644.8634,432.275 L645.9259,432.6813 Q647.4103,433.2281 648.1134,434.1344 Q648.8321,435.0406 648.8321,436.4156 Q648.8321,438.2906 647.7228,439.2125 Q646.6134,440.1344 644.3634,440.1344 Q643.4415,440.1344 642.5196,439.9156 Q641.5978,439.6969 640.7384,439.275 L640.7384,436.7438 Q641.7071,437.4313 642.629,437.775 Q643.5509,438.1188 644.4415,438.1188 Q645.3478,438.1188 645.8478,437.7125 Q646.3478,437.2906 646.3478,436.5563 Q646.3478,435.9938 646.004,435.5875 Q645.6759,435.1656 645.0509,434.9156 L643.8478,434.4625 Z " fill="#000000"/><text fill="#000000" font-family="sans-serif" font-size="14" lengthAdjust="spacing" textLength="94.541" x="663.0886" y="438.7467">DebianConfig</text><line style="stroke:#181818;stroke-width:0.5;" x1="609.1" x2="780.893" y1="449.9" y2="449.9"/><g data-visibility-modifier="PUBLIC_FIELD"><ellipse cx="619.1" cy="463.5484" fill="none" rx="3" ry="3" style="stroke:#038048;stroke-width:1;"/></g><text fill="#000000" font-family="sans-serif" font-size="14" lengthAdjust="spacing" textLength="107.3174" x="628.1" y="466.8951">Interface string</text><g data-visibility-modifier="PUBLIC_FIELD"><ellipse cx="619.1" cy="479.8453" fill="none" rx="3" ry="3" style="stroke:#038048;stroke-width:1;"/></g><text fill="#000000" font-family="sans-serif" font-size="14" lengthAdjust="spacing" textLength="122.5889" x="628.1" y="483.192">DiskDevice string</text><g data-visibility-modifier="PUBLIC_FIELD"><ellipse cx="619.1" cy="496.1422" fill="none" rx="3" ry="3" style="stroke:#038048;stroke-width:1;"/></g><text fill="#000000" font-family="sans-serif" font-size="14" lengthAdjust="spacing" textLength="96.9678" x="628.1" y="499.4889">Tasksel string</text><g data-visibility-modifier="PUBLIC_FIELD"><ellipse cx="619.1" cy="512.4391" fill="none" rx="3" ry="3" style="stroke:#038048;stroke-width:1;"/></g><text fill="#000000" font-family="sans-serif" font-size="14" lengthAdjust="spacing" textLength="147.793" x="628.1" y="515.7857">ExtraPackages string</text><g data-visibility-modifier="PUBLIC_FIELD"><ellipse cx="619.1" cy="528.7359" fill="none" rx="3" ry="3" style="stroke:#038048;stroke-width:1;"/></g><text fill="#000000" font-family="sans-serif" font-size="14" lengthAdjust="spacing" textLength="80.3906" x="628.1" y="532.0826">Suite string</text><line style="stroke:#181818;stroke-width:0.5;" x1="609.1" x2="780.893" y1="539.3844" y2="539.3844"/></g><!--class DebianSpecific--><g class="entity" data-qualified-name="inventory.DebianSpecific" data-source-line="48" id="ent0007"><rect fill="#F1F1F1" height="80.5938" rx="2.5" ry="2.5" style="stroke:#181818;stroke-width:0.5;" width="164.8379" x="446.58" y="130.63"/><ellipse cx="474.507" cy="146.63" fill="#7FFFD4" rx="11" ry="11" style="stroke:#181818;stroke-width:1;"/><path d="M473.9913,147.1925 Q472.132,146.4894 471.4757,145.7238 Q470.8351,144.9425 470.8351,143.63 Q470.8351,141.9425 471.9132,140.9738 Q472.9913,140.005 474.8663,140.005 Q475.7257,140.005 476.5695,140.2081 Q477.4288,140.3956 478.2726,140.7863 L478.2726,143.1769 Q477.4913,142.6144 476.6632,142.3331 Q475.8507,142.0363 475.0538,142.0363 Q474.1788,142.0363 473.6945,142.3956 Q473.2257,142.755 473.2257,143.4113 Q473.2257,143.9269 473.5695,144.2706 Q473.9132,144.5988 475.007,145.005 L476.0695,145.4113 Q477.5538,145.9581 478.257,146.8644 Q478.9757,147.7706 478.9757,149.1456 Q478.9757,151.0206 477.8663,151.9425 Q476.757,152.8644 474.507,152.8644 Q473.5851,152.8644 472.6632,152.6456 Q471.7413,152.4269 470.882,152.005 L470.882,149.4738 Q471.8507,150.1613 472.7726,150.505 Q473.6945,150.8488 474.5851,150.8488 Q475.4913,150.8488 475.9913,150.4425 Q476.4913,150.0206 476.4913,149.2863 Q476.4913,148.7238 476.1476,148.3175 Q475.8195,147.8956 475.1945,147.6456 L473.9913,147.1925 Z " fill="#000000"/><text fill="#000000" font-family="sans-serif" font-size="14" lengthAdjust="spacing" textLength="104.1113" x="491.3796" y="151.4767">DebianSpecific</text><line style="stroke:#181818;stroke-width:0.5;" x1="447.58" x2="610.4179" y1="162.63" y2="162.63"/><g data-visibility-modifier="PUBLIC_FIELD"><ellipse cx="457.58" cy="176.2784" fill="none" rx="3" ry="3" style="stroke:#038048;stroke-width:1;"/></g><text fill="#000000" font-family="sans-serif" font-size="14" lengthAdjust="spacing" textLength="81.6621" x="466.58" y="179.6251">Initrd string</text><g data-visibility-modifier="PUBLIC_FIELD"><ellipse cx="457.58" cy="192.5753" fill="none" rx="3" ry="3" style="stroke:#038048;stroke-width:1;"/></g><text fill="#000000" font-family="sans-serif" font-size="14" lengthAdjust="spacing" textLength="138.8379" x="466.58" y="195.922">PreeSeedURL string</text><line style="stroke:#181818;stroke-width:0.5;" x1="447.58" x2="610.4179" y1="203.2238" y2="203.2238"/></g><!--class MachineObject--><g class="entity" data-qualified-name="inventory.MachineObject" data-source-line="53" id="ent0008"><rect fill="#F1F1F1" height="243.5625" rx="2.5" ry="2.5" style="stroke:#181818;stroke-width:0.5;" width="713.0049" x="1036.5" y="360.86"/><ellipse cx="1336.6523" cy="376.86" fill="#7FFFD4" rx="11" ry="11" style="stroke:#181818;stroke-width:1;"/><path d="M1336.1367,377.4225 Q1334.2773,376.7194 1333.6211,375.9537 Q1332.9805,375.1725 1332.9805,373.86 Q1332.9805,372.1725 1334.0586,371.2037 Q1335.1367,370.235 1337.0117,370.235 Q1337.8711,370.235 1338.7148,370.4381 Q1339.5742,370.6256 1340.418,371.0162 L1340.418,373.4069 Q1339.6367,372.8444 1338.8086,372.5631 Q1337.9961,372.2662 1337.1992,372.2662 Q1336.3242,372.2662 1335.8398,372.6256 Q1335.3711,372.985 1335.3711,373.6412 Q1335.3711,374.1569 1335.7148,374.5006 Q1336.0586,374.8287 1337.1523,375.235 L1338.2148,375.6412 Q1339.6992,376.1881 1340.4023,377.0944 Q1341.1211,378.0006 1341.1211,379.3756 Q1341.1211,381.2506 1340.0117,382.1725 Q1338.9023,383.0944 1336.6523,383.0944 Q1335.7305,383.0944 1334.8086,382.8756 Q1333.8867,382.6569 1333.0273,382.235 L1333.0273,379.7037 Q1333.9961,380.3912 1334.918,380.735 Q1335.8398,381.0787 1336.7305,381.0787 Q1337.6367,381.0787 1338.1367,380.6725 Q1338.6367,380.2506 1338.6367,379.5162 Q1338.6367,378.9537 1338.293,378.5475 Q1337.9648,378.1256 1337.3398,377.8756 L1336.1367,377.4225 Z " fill="#000000"/><text fill="#000000" font-family="sans-serif" font-size="14" lengthAdjust="spacing" textLength="104.2002" x="1357.1523" y="381.7067">MachineObject</text><line style="stroke:#181818;stroke-width:0.5;" x1="1037.5" x2="1748.5049" y1="392.86" y2="392.86"/><g data-visibility-modifier="PUBLIC_FIELD"><ellipse cx="1047.5" cy="406.5084" fill="none" rx="3" ry="3" style="stroke:#038048;stroke-width:1;"/></g><text fill="#000000" font-family="sans-serif" font-size="14" lengthAdjust="spacing" textLength="57.21" x="1056.5" y="409.8551">IP string</text><g data-visibility-modifier="PUBLIC_FIELD"><ellipse cx="1047.5" cy="422.8053" fill="none" rx="3" ry="3" style="stroke:#038048;stroke-width:1;"/></g><text fill="#000000" font-family="sans-serif" font-size="14" lengthAdjust="spacing" textLength="94.3291" x="1056.5" y="426.152">Cluster string</text><g data-visibility-modifier="PUBLIC_FIELD"><ellipse cx="1047.5" cy="439.1022" fill="none" rx="3" ry="3" style="stroke:#038048;stroke-width:1;"/></g><text fill="#000000" font-family="sans-serif" font-size="14" lengthAdjust="spacing" textLength="110.8994" x="1056.5" y="442.4489">Template string</text><g data-visibility-modifier="PUBLIC_FIELD"><ellipse cx="1047.5" cy="455.3991" fill="none" rx="3" ry="3" style="stroke:#038048;stroke-width:1;"/></g><text fill="#000000" font-family="sans-serif" font-size="14" lengthAdjust="spacing" textLength="59.5479" x="1056.5" y="458.7457">ID string</text><g data-visibility-modifier="PUBLIC_FIELD"><ellipse cx="1047.5" cy="471.6959" fill="none" rx="3" ry="3" style="stroke:#038048;stroke-width:1;"/></g><text fill="#000000" font-family="sans-serif" font-size="14" lengthAdjust="spacing" textLength="105.8477" x="1056.5" y="475.0426">OSName string</text><g data-visibility-modifier="PUBLIC_FIELD"><ellipse cx="1047.5" cy="487.9928" fill="none" rx="3" ry="3" style="stroke:#038048;stroke-width:1;"/></g><text fill="#000000" font-family="sans-serif" font-size="14" lengthAdjust="spacing" textLength="98.8818" x="1056.5" y="491.3395">OSType string</text><g data-visibility-modifier="PUBLIC_FIELD"><ellipse cx="1047.5" cy="504.2897" fill="none" rx="3" ry="3" style="stroke:#038048;stroke-width:1;"/></g><text fill="#000000" font-family="sans-serif" font-size="14" lengthAdjust="spacing" textLength="89.5645" x="1056.5" y="507.6364">Kernel string</text><g data-visibility-modifier="PUBLIC_FIELD"><ellipse cx="1047.5" cy="520.5866" fill="none" rx="3" ry="3" style="stroke:#038048;stroke-width:1;"/></g><text fill="#000000" font-family="sans-serif" font-size="14" lengthAdjust="spacing" textLength="83.5215" x="1056.5" y="523.9332">OSData any</text><g data-visibility-modifier="PUBLIC_FIELD"><ellipse cx="1047.5" cy="536.8834" fill="none" rx="3" ry="3" style="stroke:#038048;stroke-width:1;"/></g><text fill="#000000" font-family="sans-serif" font-size="14" lengthAdjust="spacing" textLength="94.001" x="1056.5" y="540.2301">Installed bool</text><g data-visibility-modifier="PUBLIC_FIELD"><ellipse cx="1047.5" cy="553.1803" fill="none" rx="3" ry="3" style="stroke:#038048;stroke-width:1;"/></g><text fill="#000000" font-family="sans-serif" font-size="14" lengthAdjust="spacing" textLength="75.4346" x="1056.5" y="556.527">Role string</text><line style="stroke:#181818;stroke-width:0.5;" x1="1037.5" x2="1748.5049" y1="563.8287" y2="563.8287"/><g data-visibility-modifier="PUBLIC_METHOD"><ellipse cx="1047.5" cy="577.4772" fill="#84BE84" rx="3" ry="3" style="stroke:#038048;stroke-width:1;"/></g><text fill="#000000" font-family="sans-serif" font-size="14" lengthAdjust="spacing" textLength="687.0049" x="1056.5" y="580.8239">Generate(ip string, m string, t string, c string, role string, ansibleTemplate string) *MachineObject</text><g data-visibility-modifier="PUBLIC_METHOD"><ellipse cx="1047.5" cy="593.7741" fill="#84BE84" rx="3" ry="3" style="stroke:#038048;stroke-width:1;"/></g><text fill="#000000" font-family="sans-serif" font-size="14" lengthAdjust="spacing" textLength="146.7744" x="1056.5" y="597.1207">GetTemplate() string</text></g><!--class RHELSpecific--><g class="entity" data-qualified-name="inventory.RHELSpecific" data-source-line="69" id="ent0009"><rect fill="#F1F1F1" height="48" rx="2.5" ry="2.5" style="stroke:#181818;stroke-width:0.5;" width="123.3896" x="22.31" y="458.64"/><ellipse cx="37.31" cy="474.64" fill="#7FFFD4" rx="11" ry="11" style="stroke:#181818;stroke-width:1;"/><path d="M36.7944,475.2025 Q34.935,474.4994 34.2788,473.7338 Q33.6381,472.9525 33.6381,471.64 Q33.6381,469.9525 34.7163,468.9838 Q35.7944,468.015 37.6694,468.015 Q38.5288,468.015 39.3725,468.2181 Q40.2319,468.4056 41.0756,468.7963 L41.0756,471.1869 Q40.2944,470.6244 39.4663,470.3431 Q38.6538,470.0463 37.8569,470.0463 Q36.9819,470.0463 36.4975,470.4056 Q36.0288,470.765 36.0288,471.4213 Q36.0288,471.9369 36.3725,472.2806 Q36.7163,472.6088 37.81,473.015 L38.8725,473.4213 Q40.3569,473.9681 41.06,474.8744 Q41.7788,475.7806 41.7788,477.1556 Q41.7788,479.0306 40.6694,479.9525 Q39.56,480.8744 37.31,480.8744 Q36.3881,480.8744 35.4663,480.6556 Q34.5444,480.4369 33.685,480.015 L33.685,477.4838 Q34.6538,478.1713 35.5756,478.515 Q36.4975,478.8588 37.3881,478.8588 Q38.2944,478.8588 38.7944,478.4525 Q39.2944,478.0306 39.2944,477.2963 Q39.2944,476.7338 38.9506,476.3275 Q38.6225,475.9056 37.9975,475.6556 L36.7944,475.2025 Z " fill="#000000"/><text fill="#000000" font-family="sans-serif" font-size="14" lengthAdjust="spacing" textLength="91.3896" x="51.31" y="479.4867">RHELSpecific</text><line style="stroke:#181818;stroke-width:0.5;" x1="23.31" x2="144.6996" y1="490.64" y2="490.64"/><line style="stroke:#181818;stroke-width:0.5;" x1="23.31" x2="144.6996" y1="498.64" y2="498.64"/></g><!--class UbuntuConfig--><g class="entity" data-qualified-name="inventory.UbuntuConfig" data-source-line="71" id="ent0010"><rect fill="#F1F1F1" height="80.5938" rx="2.5" ry="2.5" style="stroke:#181818;stroke-width:0.5;" width="184.7168" x="816.64" y="442.34"/><ellipse cx="857.09" cy="458.34" fill="#7FFFD4" rx="11" ry="11" style="stroke:#181818;stroke-width:1;"/><path d="M856.5744,458.9025 Q854.715,458.1994 854.0588,457.4338 Q853.4182,456.6525 853.4182,455.34 Q853.4182,453.6525 854.4963,452.6838 Q855.5744,451.715 857.4494,451.715 Q858.3088,451.715 859.1525,451.9181 Q860.0119,452.1056 860.8557,452.4963 L860.8557,454.8869 Q860.0744,454.3244 859.2463,454.0431 Q858.4338,453.7463 857.6369,453.7463 Q856.7619,453.7463 856.2775,454.1056 Q855.8088,454.465 855.8088,455.1213 Q855.8088,455.6369 856.1525,455.9806 Q856.4963,456.3088 857.59,456.715 L858.6525,457.1213 Q860.1369,457.6681 860.84,458.5744 Q861.5588,459.4806 861.5588,460.8556 Q861.5588,462.7306 860.4494,463.6525 Q859.34,464.5744 857.09,464.5744 Q856.1682,464.5744 855.2463,464.3556 Q854.3244,464.1369 853.465,463.715 L853.465,461.1838 Q854.4338,461.8713 855.3557,462.215 Q856.2775,462.5588 857.1682,462.5588 Q858.0744,462.5588 858.5744,462.1525 Q859.0744,461.7306 859.0744,460.9963 Q859.0744,460.4338 858.7307,460.0275 Q858.4025,459.6056 857.7775,459.3556 L856.5744,458.9025 Z " fill="#000000"/><text fill="#000000" font-family="sans-serif" font-size="14" lengthAdjust="spacing" textLength="96.1611" x="876.7456" y="463.1867">UbuntuConfig</text><line style="stroke:#181818;stroke-width:0.5;" x1="817.64" x2="1000.3568" y1="474.34" y2="474.34"/><g data-visibility-modifier="PUBLIC_FIELD"><ellipse cx="827.64" cy="487.9884" fill="none" rx="3" ry="3" style="stroke:#038048;stroke-width:1;"/></g><text fill="#000000" font-family="sans-serif" font-size="14" lengthAdjust="spacing" textLength="107.3174" x="836.64" y="491.3351">Interface string</text><g data-visibility-modifier="PUBLIC_FIELD"><ellipse cx="827.64" cy="504.2853" fill="none" rx="3" ry="3" style="stroke:#038048;stroke-width:1;"/></g><text fill="#000000" font-family="sans-serif" font-size="14" lengthAdjust="spacing" textLength="158.7168" x="836.64" y="507.632">ExtraPackages []string</text><line style="stroke:#181818;stroke-width:0.5;" x1="817.64" x2="1000.3568" y1="514.9337" y2="514.9337"/></g><!--class UbuntuSpecific--><g class="entity" data-qualified-name="inventory.UbuntuSpecific" data-source-line="76" id="ent0011"><rect fill="#F1F1F1" height="145.7813" rx="2.5" ry="2.5" style="stroke:#181818;stroke-width:0.5;" width="183.3223" x="180.34" y="409.75"/><ellipse cx="215.8559" cy="425.75" fill="#7FFFD4" rx="11" ry="11" style="stroke:#181818;stroke-width:1;"/><path d="M215.3402,426.3125 Q213.4809,425.6094 212.8246,424.8437 Q212.184,424.0625 212.184,422.75 Q212.184,421.0625 213.2621,420.0937 Q214.3402,419.125 216.2152,419.125 Q217.0746,419.125 217.9184,419.3281 Q218.7777,419.5156 219.6215,419.9062 L219.6215,422.2969 Q218.8402,421.7344 218.0121,421.4531 Q217.1996,421.1562 216.4027,421.1562 Q215.5277,421.1562 215.0434,421.5156 Q214.5746,421.875 214.5746,422.5312 Q214.5746,423.0469 214.9184,423.3906 Q215.2621,423.7187 216.3559,424.125 L217.4184,424.5312 Q218.9027,425.0781 219.6059,425.9844 Q220.3246,426.8906 220.3246,428.2656 Q220.3246,430.1406 219.2152,431.0625 Q218.1059,431.9844 215.8559,431.9844 Q214.934,431.9844 214.0121,431.7656 Q213.0902,431.5469 212.2309,431.125 L212.2309,428.5937 Q213.1996,429.2812 214.1215,429.625 Q215.0434,429.9687 215.934,429.9687 Q216.8402,429.9687 217.3402,429.5625 Q217.8402,429.1406 217.8402,428.4062 Q217.8402,427.8437 217.4965,427.4375 Q217.1684,427.0156 216.5434,426.7656 L215.3402,426.3125 Z " fill="#000000"/><text fill="#000000" font-family="sans-serif" font-size="14" lengthAdjust="spacing" textLength="105.7314" x="234.415" y="430.5967">UbuntuSpecific</text><line style="stroke:#181818;stroke-width:0.5;" x1="181.34" x2="362.6623" y1="441.75" y2="441.75"/><g data-visibility-modifier="PUBLIC_FIELD"><ellipse cx="191.34" cy="455.3984" fill="none" rx="3" ry="3" style="stroke:#038048;stroke-width:1;"/></g><text fill="#000000" font-family="sans-serif" font-size="14" lengthAdjust="spacing" textLength="81.6621" x="200.34" y="458.7451">Initrd string</text><g data-visibility-modifier="PUBLIC_FIELD"><ellipse cx="191.34" cy="471.6953" fill="none" rx="3" ry="3" style="stroke:#038048;stroke-width:1;"/></g><text fill="#000000" font-family="sans-serif" font-size="14" lengthAdjust="spacing" textLength="57.21" x="200.34" y="475.042">IP string</text><g data-visibility-modifier="PUBLIC_FIELD"><ellipse cx="191.34" cy="487.9922" fill="none" rx="3" ry="3" style="stroke:#038048;stroke-width:1;"/></g><text fill="#000000" font-family="sans-serif" font-size="14" lengthAdjust="spacing" textLength="88.5664" x="200.34" y="491.3389">ISOUrl string</text><g data-visibility-modifier="PUBLIC_FIELD"><ellipse cx="191.34" cy="504.2891" fill="none" rx="3" ry="3" style="stroke:#038048;stroke-width:1;"/></g><text fill="#000000" font-family="sans-serif" font-size="14" lengthAdjust="spacing" textLength="157.3223" x="200.34" y="507.6357">CloudConfigURL string</text><g data-visibility-modifier="PUBLIC_FIELD"><ellipse cx="191.34" cy="520.5859" fill="none" rx="3" ry="3" style="stroke:#038048;stroke-width:1;"/></g><text fill="#000000" font-family="sans-serif" font-size="14" lengthAdjust="spacing" textLength="64.3057" x="200.34" y="523.9326">DS string</text><g data-visibility-modifier="PUBLIC_FIELD"><ellipse cx="191.34" cy="536.8828" fill="none" rx="3" ry="3" style="stroke:#038048;stroke-width:1;"/></g><text fill="#000000" font-family="sans-serif" font-size="14" lengthAdjust="spacing" textLength="108.3701" x="200.34" y="540.2295">RootPath string</text><line style="stroke:#181818;stroke-width:0.5;" x1="181.34" x2="362.6623" y1="547.5313" y2="547.5313"/></g><!--class installedMachines--><g class="entity" data-qualified-name="inventory.installedMachines" data-source-line="85" id="ent0012"><rect fill="#F1F1F1" height="80.5938" rx="2.5" ry="2.5" style="stroke:#181818;stroke-width:0.5;" width="289.7646" x="1460.12" y="130.63"/><ellipse cx="1538.101" cy="146.63" fill="#7FFFD4" rx="11" ry="11" style="stroke:#181818;stroke-width:1;"/><path d="M1537.5853,147.1925 Q1535.726,146.4894 1535.0697,145.7238 Q1534.4291,144.9425 1534.4291,143.63 Q1534.4291,141.9425 1535.5072,140.9738 Q1536.5853,140.005 1538.4603,140.005 Q1539.3197,140.005 1540.1635,140.2081 Q1541.0228,140.3956 1541.8666,140.7863 L1541.8666,143.1769 Q1541.0853,142.6144 1540.2572,142.3331 Q1539.4447,142.0363 1538.6478,142.0363 Q1537.7728,142.0363 1537.2885,142.3956 Q1536.8197,142.755 1536.8197,143.4113 Q1536.8197,143.9269 1537.1635,144.2706 Q1537.5072,144.5988 1538.601,145.005 L1539.6635,145.4113 Q1541.1478,145.9581 1541.851,146.8644 Q1542.5697,147.7706 1542.5697,149.1456 Q1542.5697,151.0206 1541.4603,151.9425 Q1540.351,152.8644 1538.101,152.8644 Q1537.1791,152.8644 1536.2572,152.6456 Q1535.3353,152.4269 1534.476,152.005 L1534.476,149.4738 Q1535.4447,150.1613 1536.3666,150.505 Q1537.2885,150.8488 1538.1791,150.8488 Q1539.0853,150.8488 1539.5853,150.4425 Q1540.0853,150.0206 1540.0853,149.2863 Q1540.0853,148.7238 1539.7416,148.3175 Q1539.4135,147.8956 1538.7885,147.6456 L1537.5853,147.1925 Z " fill="#000000"/><text fill="#000000" font-family="sans-serif" font-size="14" lengthAdjust="spacing" textLength="125.3027" x="1558.601" y="151.4767">installedMachines</text><line style="stroke:#181818;stroke-width:0.5;" x1="1461.12" x2="1748.8846" y1="162.63" y2="162.63"/><g data-visibility-modifier="PUBLIC_FIELD"><ellipse cx="1471.12" cy="176.2784" fill="none" rx="3" ry="3" style="stroke:#038048;stroke-width:1;"/></g><text fill="#000000" font-family="sans-serif" font-size="14" lengthAdjust="spacing" textLength="65.8984" x="1480.12" y="179.6251">Machines</text><text fill="#0000FF" font-family="sans-serif" font-size="14" lengthAdjust="spacing" textLength="31.1035" x="1550.4686" y="179.6251">map</text><text fill="#000000" font-family="sans-serif" font-size="14" lengthAdjust="spacing" textLength="162.3125" x="1581.5721" y="179.6251">[string]*MachineObject</text><g data-visibility-modifier="PUBLIC_FIELD"><ellipse cx="1471.12" cy="192.5753" fill="none" rx="3" ry="3" style="stroke:#038048;stroke-width:1;"/></g><text fill="#000000" font-family="sans-serif" font-size="14" lengthAdjust="spacing" textLength="152.0586" x="1480.12" y="195.922">InstallTime time.Time</text><line style="stroke:#181818;stroke-width:0.5;" x1="1461.12" x2="1748.8846" y1="203.2238" y2="203.2238"/></g><!--class ptrMachines--><g class="entity" data-qualified-name="inventory.ptrMachines" data-source-line="90" id="ent0013"><rect fill="#F1F1F1" height="64.2969" rx="2.5" ry="2.5" style="stroke:#181818;stroke-width:0.5;" width="289.7646" x="1135.12" y="138.78"/><ellipse cx="1232.7372" cy="154.78" fill="#7FFFD4" rx="11" ry="11" style="stroke:#181818;stroke-width:1;"/><path d="M1232.2216,155.3425 Q1230.3622,154.6394 1229.7059,153.8737 Q1229.0653,153.0925 1229.0653,151.78 Q1229.0653,150.0925 1230.1434,149.1237 Q1231.2216,148.155 1233.0966,148.155 Q1233.9559,148.155 1234.7997,148.3581 Q1235.6591,148.5456 1236.5028,148.9362 L1236.5028,151.3269 Q1235.7216,150.7644 1234.8934,150.4831 Q1234.0809,150.1862 1233.2841,150.1862 Q1232.4091,150.1862 1231.9247,150.5456 Q1231.4559,150.905 1231.4559,151.5612 Q1231.4559,152.0769 1231.7997,152.4206 Q1232.1434,152.7487 1233.2372,153.155 L1234.2997,153.5612 Q1235.7841,154.1081 1236.4872,155.0144 Q1237.2059,155.9206 1237.2059,157.2956 Q1237.2059,159.1706 1236.0966,160.0925 Q1234.9872,161.0144 1232.7372,161.0144 Q1231.8153,161.0144 1230.8934,160.7956 Q1229.9716,160.5769 1229.1122,160.155 L1229.1122,157.6237 Q1230.0809,158.3112 1231.0028,158.655 Q1231.9247,158.9987 1232.8153,158.9987 Q1233.7216,158.9987 1234.2216,158.5925 Q1234.7216,158.1706 1234.7216,157.4362 Q1234.7216,156.8737 1234.3778,156.4675 Q1234.0497,156.0456 1233.4247,155.7956 L1232.2216,155.3425 Z " fill="#000000"/><text fill="#000000" font-family="sans-serif" font-size="14" lengthAdjust="spacing" textLength="86.0303" x="1253.2372" y="159.6267">ptrMachines</text><line style="stroke:#181818;stroke-width:0.5;" x1="1136.12" x2="1423.8846" y1="170.78" y2="170.78"/><g data-visibility-modifier="PUBLIC_FIELD"><ellipse cx="1146.12" cy="184.4284" fill="none" rx="3" ry="3" style="stroke:#038048;stroke-width:1;"/></g><text fill="#000000" font-family="sans-serif" font-size="14" lengthAdjust="spacing" textLength="65.8984" x="1155.12" y="187.7751">Machines</text><text fill="#0000FF" font-family="sans-serif" font-size="14" lengthAdjust="spacing" textLength="31.1035" x="1225.4686" y="187.7751">map</text><text fill="#000000" font-family="sans-serif" font-size="14" lengthAdjust="spacing" textLength="162.3125" x="1256.5721" y="187.7751">[string]*MachineObject</text><line style="stroke:#181818;stroke-width:0.5;" x1="1136.12" x2="1423.8846" y1="195.0769" y2="195.0769"/></g><!--class any--><g class="entity" data-qualified-name="inventory.any" data-source-line="100" id="ent0017"><rect fill="#F1F1F1" height="48" rx="2.5" ry="2.5" style="stroke:#181818;stroke-width:0.5;" width="57.7373" x="1364.13" y="664.42"/><ellipse cx="1379.13" cy="680.42" fill="#ADD1B2" rx="11" ry="11" style="stroke:#181818;stroke-width:1;"/><path d="M1382.0988,686.0606 Q1381.5206,686.3575 1380.88,686.4981 Q1380.2394,686.6544 1379.5363,686.6544 Q1377.0363,686.6544 1375.7081,685.0138 Q1374.3956,683.3575 1374.3956,680.2325 Q1374.3956,677.1075 1375.7081,675.4513 Q1377.0363,673.795 1379.5363,673.795 Q1380.2394,673.795 1380.88,673.9513 Q1381.5363,674.1075 1382.0988,674.4044 L1382.0988,677.1231 Q1381.4738,676.545 1380.88,676.2794 Q1380.2863,675.9981 1379.6613,675.9981 Q1378.3175,675.9981 1377.63,677.0763 Q1376.9425,678.1388 1376.9425,680.2325 Q1376.9425,682.3263 1377.63,683.4044 Q1378.3175,684.4669 1379.6613,684.4669 Q1380.2863,684.4669 1380.88,684.2013 Q1381.4738,683.92 1382.0988,683.3419 L1382.0988,686.0606 Z " fill="#000000"/><text fill="#000000" font-family="sans-serif" font-size="14" lengthAdjust="spacing" textLength="25.7373" x="1393.13" y="685.2667">any</text><line style="stroke:#181818;stroke-width:0.5;" x1="1365.13" x2="1420.8673" y1="696.42" y2="696.42"/><line style="stroke:#181818;stroke-width:0.5;" x1="1365.13" x2="1420.8673" y1="704.42" y2="704.42"/></g><!--class Time--><g class="entity" data-qualified-name="time.Time" data-source-line="102" id="ent0020"><rect fill="#F1F1F1" height="48" rx="2.5" ry="2.5" style="stroke:#181818;stroke-width:0.5;" width="66.6924" x="1805.65" y="458.64"/><ellipse cx="1820.65" cy="474.64" fill="#ADD1B2" rx="11" ry="11" style="stroke:#181818;stroke-width:1;"/><path d="M1823.6188,480.2806 Q1823.0406,480.5775 1822.4,480.7181 Q1821.7594,480.8744 1821.0563,480.8744 Q1818.5563,480.8744 1817.2281,479.2338 Q1815.9156,477.5775 1815.9156,474.4525 Q1815.9156,471.3275 1817.2281,469.6713 Q1818.5563,468.015 1821.0563,468.015 Q1821.7594,468.015 1822.4,468.1713 Q1823.0563,468.3275 1823.6188,468.6244 L1823.6188,471.3431 Q1822.9938,470.765 1822.4,470.4994 Q1821.8063,470.2181 1821.1813,470.2181 Q1819.8375,470.2181 1819.15,471.2963 Q1818.4625,472.3588 1818.4625,474.4525 Q1818.4625,476.5463 1819.15,477.6244 Q1819.8375,478.6869 1821.1813,478.6869 Q1821.8063,478.6869 1822.4,478.4213 Q1822.9938,478.14 1823.6188,477.5619 L1823.6188,480.2806 Z " fill="#000000"/><text fill="#000000" font-family="sans-serif" font-size="14" lengthAdjust="spacing" textLength="34.6924" x="1834.65" y="479.4867">Time</text><line style="stroke:#181818;stroke-width:0.5;" x1="1806.65" x2="1871.3424" y1="490.64" y2="490.64"/><line style="stroke:#181818;stroke-width:0.5;" x1="1806.65" x2="1871.3424" y1="498.64" y2="498.64"/></g><!--reverse link BaseConfig to CentOSConfig--><g class="link" data-entity-1="ent0002" data-entity-2="ent0003" data-link-type="composition" data-source-line="95" id="lnk14"><path codeLine="95" d="M639.1287,289.6324 C597.2587,342.1424 556.59,393.13 524.01,433.97" fill="none" id="BaseConfig-backto-CentOSConfig" style="stroke:#181818;stroke-width:1;"/><polygon fill="#181818" points="646.61,280.25,639.7419,282.4475,639.1287,289.6324,645.9968,287.435,646.61,280.25" style="stroke:#181818;stroke-width:1;stroke-linejoin:miter;stroke-miterlimit:10;"/><text fill="#000000" font-family="sans-serif" font-size="13" lengthAdjust="spacing" textLength="52.0508" x="473.703" y="423.148">extends</text></g><!--reverse link BaseConfig to DebianConfig--><g class="link" data-entity-1="ent0002" data-entity-2="ent0006" data-link-type="composition" data-source-line="96" id="lnk15"><path codeLine="96" d="M715.6982,312.9406 C710.7682,353.1106 707.01,383.74 702.88,417.44" fill="none" id="BaseConfig-backto-DebianConfig" style="stroke:#181818;stroke-width:1;"/><polygon fill="#181818" points="717.16,301.03,712.4589,306.4981,715.6982,312.9406,720.3993,307.4726,717.16,301.03" style="stroke:#181818;stroke-width:1;stroke-linejoin:miter;stroke-miterlimit:10;"/><text fill="#000000" font-family="sans-serif" font-size="13" lengthAdjust="spacing" textLength="52.0508" x="649.0144" y="407.0163">extends</text></g><!--reverse link BaseConfig to UbuntuConfig--><g class="link" data-entity-1="ent0002" data-entity-2="ent0010" data-link-type="composition" data-source-line="97" id="lnk16"><path codeLine="97" d="M812.2984,311.4633 C841.1584,362.2533 866.25,406.41 886.54,442.12" fill="none" id="BaseConfig-backto-UbuntuConfig" style="stroke:#181818;stroke-width:1;"/><polygon fill="#181818" points="806.37,301.03,805.8564,308.2228,812.2984,311.4633,812.812,304.2705,806.37,301.03" style="stroke:#181818;stroke-width:1;stroke-linejoin:miter;stroke-miterlimit:10;"/><text fill="#000000" font-family="sans-serif" font-size="13" lengthAdjust="spacing" textLength="52.0508" x="826.5183" y="431.2451">extends</text></g><!--reverse link MachineObject to any--><g class="link" data-entity-1="ent0008" data-entity-2="ent0017" data-link-type="aggregation" data-source-line="100" id="lnk18"><path codeLine="100" d="M1393,616.83 C1393,639.39 1393,648.65 1393,663.94" fill="none" id="MachineObject-backto-any" style="stroke:#181818;stroke-width:1;"/><polygon fill="none" points="1393,604.83,1389,610.83,1393,616.83,1397,610.83,1393,604.83" style="stroke:#181818;stroke-width:1;stroke-linejoin:miter;stroke-miterlimit:10;"/><text fill="#000000" font-family="sans-serif" font-size="13" lengthAdjust="spacing" textLength="29.7832" x="1363.1842" y="624.3984">uses</text></g><!--reverse link installedMachines to MachineObject--><g class="link" data-entity-1="ent0012" data-entity-2="ent0008" data-link-type="aggregation" data-source-line="101" id="lnk19"><path codeLine="101" d="M1571.1519,221.3724 C1545.4219,258.9624 1512.16,307.56 1475.9,360.52" fill="none" id="installedMachines-backto-MachineObject" style="stroke:#181818;stroke-width:1;"/><polygon fill="none" points="1577.93,211.47,1571.2402,214.1618,1571.1519,221.3724,1577.8418,218.6806,1577.93,211.47" style="stroke:#181818;stroke-width:1;stroke-linejoin:miter;stroke-miterlimit:10;"/><text fill="#000000" font-family="sans-serif" font-size="13" lengthAdjust="spacing" textLength="29.7832" x="1542.3668" y="231.2044">uses</text></g><!--reverse link installedMachines to Time--><g class="link" data-entity-1="ent0012" data-entity-2="ent0020" data-link-type="aggregation" data-source-line="102" id="lnk22"><path codeLine="102" d="M1650.2556,220.5078 C1684.2456,257.6978 1726.93,306.68 1766,360.86 C1789.36,393.25 1812.57,433.36 1826.35,458.23" fill="none" id="installedMachines-backto-Time" style="stroke:#181818;stroke-width:1;"/><polygon fill="none" points="1642.16,211.65,1643.2552,218.7774,1650.2556,220.5078,1649.1604,213.3804,1642.16,211.65" style="stroke:#181818;stroke-width:1;stroke-linejoin:miter;stroke-miterlimit:10;"/><text fill="#000000" font-family="sans-serif" font-size="13" lengthAdjust="spacing" textLength="29.7832" x="1616.8335" y="231.413">uses</text></g><!--reverse link ptrMachines to MachineObject--><g class="link" data-entity-1="ent0013" data-entity-2="ent0008" data-link-type="aggregation" data-source-line="103" id="lnk23"><path codeLine="103" d="M1295.5712,214.6038 C1309.0312,251.5138 1328.08,303.7 1348.88,360.7" fill="none" id="ptrMachines-backto-MachineObject" style="stroke:#181818;stroke-width:1;"/><polygon fill="none" points="1291.46,203.33,1289.7577,210.3373,1295.5712,214.6038,1297.2735,207.5965,1291.46,203.33" style="stroke:#181818;stroke-width:1;stroke-linejoin:miter;stroke-miterlimit:10;"/><text fill="#000000" font-family="sans-serif" font-size="13" lengthAdjust="spacing" textLength="29.7832" x="1261.9381" y="223.2656">uses</text></g><?plantuml-src lLPDSzem4BtpApIS82NfJC-K6OgJmeGK1i4fauDiBw0YIwwqJaCx-U-HoqUiMYREDAaF7iq-hNRtxVFAg5A2YeGAKIKavXeYv4es94l0f2m2mkKzI5HwItutY7qYmOmXpI_Cm4399LyrIRTBMhJJ_v6nX6akeKrwlVtk_Fb0nYfY0eX1YwuAzclO9Ymjs-SyWLzAUZo6oc2UMna9LCAuBDiN1hJV8qUkCY7ywDIM-LFfUCZCkepUSAsLphEfmWAkoz202H6oQ5FXs1_qurY3vRU4KJgSPg4bx03zmHwBBHdOFarexQQC989UvYqkSydD9e1xxiCk7r2pgQs1hS2yb0nD8U9B7jLAXwEEo_56KuzD6hHCNlDeGv5fNCp6bPjca2elRZrNyEb41Kh3eO9_AM2c55xHKobQgZtOofvdFyM2Opd704BEv7ktVCxCne2egOK2mnb7U2dvDv38L0DGWFWaLJSiMjj39-5tE-Bg1FFeRY0oOndqC0H9AXXwk1i5PTk4VlEEd0cTRrFlcDJIH_-41WmPON9RrXJ4TgWhuUXGkCtOcR-216rJR_738EwGvBZ2uoewhlJpGHqRtF1Gm5y4jCcPmxSJ3m-RM-tgTis6b-DQqd2y5c4cCNkBxy6LzkrTPQAxaEyrwEXaeOLFY2gBTsLw1qj0_NDeod1TpJa_I6VVErEZciDMqbqgYIHIGkdFeSYWPs_sxiVSsBlTHRohrCHUi_crJz2-BlAL9y4KzVz9RH_wiT4y_lvS5FzupixFIHCU46HiceKzpXNyMcTdcB_MsL5-er5qToTVCpCvUoe_vtcFdI5EoB8K_7xksVLFE7RPyIdsjrQynXC0?></g></svg>